<svg id="图层_1" data-name="图层 1" xmlns="http://www.w3.org/2000/svg" viewBox="0 0 519.4 114.41"><defs><style>.cls-1,.cls-3{fill:#fff;}.cls-2,.cls-4{fill:#007cb5;}.cls-3{fill-rule:evenodd;}.cls-4{stroke:#007cb5;stroke-miterlimit:10;stroke-width:2px;}</style></defs><title>浙江医学装备(1)</title><circle class="cls-1" cx="57.21" cy="57.21" r="56.58"/><path class="cls-2" d="M90.88,462.41a57.21,57.21,0,1,1,57.21-57.21A57.27,57.27,0,0,1,90.88,462.41Zm0-113.16a56,56,0,1,0,56,56A56,56,0,0,0,90.88,349.25Z" transform="translate(-33.67 -348)"/><circle class="cls-2" cx="57.21" cy="57.21" r="40.44"/><path class="cls-2" d="M52.59,372.3a13,13,0,0,0-2.16.42l-.13-1.24a12.76,12.76,0,0,1,2.11-.53Zm1.75,2.38a13.65,13.65,0,0,0-2.13.48l-.14-1.22a15.61,15.61,0,0,1,2.08-.6Zm3.61-2.6-.53,1.09L59.21,375c.46.46.63.8.53,1.21a3.16,3.16,0,0,1-1,1.35,5.22,5.22,0,0,0-1.2-.69c.34-.31.66-.62.76-.73s.11-.16,0-.27l-1.48-1.51c-.16.32-.31.6-.46.88l-1.28-.59c.22-.36.48-.8.76-1.28l-1.41-1.44-.82.81-.88-.89.82-.81-1.41-1.44.88-.87,1.41,1.44.73-.72.88.89-.73.72,1.15,1.17.48-.86Zm2.3-3.78-.59.58,4,4.07-.87.86-4-4.07-.54.53,0,0c1.19,1.21,2.74,3.05,3,4.89a4.14,4.14,0,0,0-1.25.14c-.23-1.65-1.53-3.1-2.59-4.18l-2.67-2.71a12.78,12.78,0,0,0,1.31-2.74l1.42.06a17.15,17.15,0,0,1-1.25,2.43l1.18,1.2,2-2Zm-4.17,6.9c.57,1.13,1.13,2.39,1.58,3.5l-1.36.36a34.13,34.13,0,0,0-1.49-3.6Z" transform="translate(-33.67 -348)"/><path class="cls-2" d="M66.28,361.73a22.63,22.63,0,0,0-2.37-.33l.29-1.19a20.47,20.47,0,0,1,2.35.21Zm.79,2.94a19,19,0,0,0-2.41-.19l.22-1.2a21.76,21.76,0,0,1,2.38.07Zm8.87-.85.58,1.21-6.63,3.18L69.31,367l2.61-1.25-2.69-5.6-2.06,1-.58-1.21,5.62-2.7.58,1.21-2.24,1.08,2.69,5.6Zm-7,1.52c0,1.3-.12,2.77-.25,4.05l-1.41-.34a31.64,31.64,0,0,0,.37-4.11Z" transform="translate(-33.67 -348)"/><path class="cls-2" d="M90.59,361.7l.16,1.27L81,364.17l-1.17-9.59,9.54-1.17.15,1.26-8.21,1,.86,7.05,6.61-.81a16.77,16.77,0,0,0-2.59-1.5,5.53,5.53,0,0,1-2.78,2.15,5.62,5.62,0,0,0-.94-.89c1.73-.65,2.43-1.37,2.68-2.07l-2.88.35-.14-1.15,3.09-.38-.13-1.06-1.4.17a4.64,4.64,0,0,1-.57.8,9.06,9.06,0,0,0-1.19-.52,4.89,4.89,0,0,0,1.28-2.3l1.28.16c-.06.21-.13.44-.2.66l4.57-.56.14,1.12-2.59.32.13,1.06,3.05-.37.14,1.15-3.06.37a23.1,23.1,0,0,1,2.85,1.51l-.69,1Z" transform="translate(-33.67 -348)"/><path class="cls-2" d="M105.34,362.72l-4.27-.9-.3,1.41c-.14.68-.38,1-.94,1.06a6.6,6.6,0,0,1-2.19-.25,5.66,5.66,0,0,0-.27-1.38c.7.18,1.51.35,1.73.39s.3,0,.33-.14l.29-1.38-4.19-.89.26-1.21,4.19.89.14-.68a8.51,8.51,0,0,0,1.38-.38L98,358.53l.24-1.13,5,1.05h.28l.7.83a10.88,10.88,0,0,1-2.85,1.13l0,.21,4.27.9Zm-7.74-5-1.23-.26.51-2.41,1.68.36a8.85,8.85,0,0,0-.53-1.31l1.22-.26a6.79,6.79,0,0,1,.71,1.66l-.46.11,1.85.39a7.54,7.54,0,0,0-.42-1.56l1.25-.19a6.3,6.3,0,0,1,.53,1.77l-.7.12,1.43.3a12,12,0,0,0,1.3-1.46l1.28.7c-.39.37-.81.73-1.2,1.06l1.61.34-.51,2.41-1.29-.27.27-1.26-7-1.49Z" transform="translate(-33.67 -348)"/><path class="cls-2" d="M118.51,369.54a13.76,13.76,0,0,1-2,0,7.5,7.5,0,0,0,1.66,1.89,4.59,4.59,0,0,0-1.21.55,6,6,0,0,1-2.19-5.35,7.08,7.08,0,0,1-1.82.14l-.53.9,2.33.84a6.1,6.1,0,0,0-.63.87c-3.05-1.05-3.52-1.2-3.83-1.2a3.88,3.88,0,0,0,.19-1.07.85.85,0,0,0,1-.35l.09-.15a13.07,13.07,0,0,1-1.73-.45,5.25,5.25,0,0,0-.14-1.2,10.76,10.76,0,0,0,3.68.78L110.43,364l.54-.91,3.77,2.24c0-.19.06-.37.08-.53l1.31.35a6.83,6.83,0,0,1-.08,1l3.7,2.19-.54.91-1.1-.65Zm-4.65-6.83-2.19-.28.18-1.15c.68.13,1.63.27,2.61.41l1.46-2.47,1.06.63-2.76,4.65-1.06-.63Zm.06-1.78a8,8,0,0,0-.57-1.75l1-.26a8.47,8.47,0,0,1,.65,1.71Zm4.22,2.48-2.06-1.22.59-1,2.06,1.22.67-1.12,1.16.69-.67,1.12,2.1,1.25-.59,1-2.1-1.25-.67,1.13,1.9,1.13-.59,1-4.87-2.89.59-1,1.81,1.07Zm-2.3,3.83a4.43,4.43,0,0,0,.2,1.28,13,13,0,0,0,1.87-.06Z" transform="translate(-33.67 -348)"/><path class="cls-2" d="M133.22,375.72a7.41,7.41,0,0,1-3.23-.24,21.93,21.93,0,0,0,2.05,3.47,5.72,5.72,0,0,0-1.48.19,18.6,18.6,0,0,1-2.16-4.29,17,17,0,0,1-3.2-2.06l4.87,5.69-3.77,3.23-1-1.12.24-.21-3.18-3.71-.25.21-.91-1.06,3.74-3.2-.69-.58a4.54,4.54,0,0,0,.57-1.26,20.37,20.37,0,0,0,3.1,2.43,10.7,10.7,0,0,1-.13-1.49,10.7,10.7,0,0,1-1.41-.48,3.94,3.94,0,0,0,.17-1.32,7.3,7.3,0,0,0,4.21.83l.72,1.29c-.27,0-.54,0-.82,0l2.13,2.49.19.13Zm-8.77,1.59.56-.48-1.18-1.38-.56.48Zm.63-2.92-.46.4,1.18,1.38.46-.4Zm1.37,5.25.56-.48-1.1-1.28-.56.48Zm1.8-1.54-1.1-1.28-.46.4,1.1,1.28Zm.8-6.11a6.58,6.58,0,0,0,.35,2,7.31,7.31,0,0,0,1.86.54l-2.14-2.5Z" transform="translate(-33.67 -348)"/><circle class="cls-1" cx="57.21" cy="57.21" r="26.49"/><path class="cls-2" d="M80,417.23a2.36,2.36,0,0,0-.64-2,1.77,1.77,0,0,1-.3-1.63c.16-.58,0-.73-.53-.84a6.74,6.74,0,0,1-.92-.2,1.09,1.09,0,0,1-.79-1.33,9.5,9.5,0,0,0,.11-2.63,2.79,2.79,0,0,0-.94-1.82,10.38,10.38,0,0,1-1.15-1.34,2.48,2.48,0,0,1,.34-3.27,11.61,11.61,0,0,1,1.32-1.42,3.5,3.5,0,0,1,1-.62.47.47,0,0,0,.16-.05,10.31,10.31,0,0,0,1.59-1.42c.4-.52.71-1.12,1.15-1.62a1,1,0,0,0,.19-.84,1.8,1.8,0,0,1,.42-1.39,1.55,1.55,0,0,0,.26-.72,1.06,1.06,0,0,1,1.36-.88,6.55,6.55,0,0,0,.92.13c.34,0,.55-.2.37-.54-.35-.64-.1-1,.4-1.46A4.44,4.44,0,0,0,86,388.17a2.4,2.4,0,0,1,1.84-1.75,1.92,1.92,0,0,1,1.94,1.1,2.31,2.31,0,0,0,2.06,1.11,2.11,2.11,0,0,1,1.43.51.48.48,0,0,0,.68,0,2.55,2.55,0,0,1,2.58-.3,2.58,2.58,0,0,1,1,.78c.42.5,1,.83,1.35,1.43.17.31,0,.55-.08.88-.25.8-.94,1.11-1.41,1.66-.29.34-.36.82-.72,1.16a1.56,1.56,0,0,1-1.13.45c-.37,0-.74,0-1.11,0-.19,0-.46-.11-.51.18a1.16,1.16,0,0,0,.1.92c.17.24.41.06.61,0,1-.39,2-.78,3-1.21a6.42,6.42,0,0,1,1.46-.28.66.66,0,0,1,.77.57,2.13,2.13,0,0,0,1.46,1.6,1.64,1.64,0,0,0,2.33-1.15,1.15,1.15,0,0,1,1-1.05c.33-.07.45-.36.64-.59a1.3,1.3,0,0,1,1.91-.15c.35.43.27.82-.26,1s-.63.34-.58.79a.59.59,0,0,1-.05.27c-.23.56-.3,1,.4,1.35a.81.81,0,0,1,.21,1.07,5,5,0,0,0-.37,1.95c-.07.8-.3,1.08-1.07,1.23-.42.08-.74.42-1.19.45-.15,0-.1.22-.1.34,0,1.22-.07,2.45-.11,3.67a1,1,0,0,1-.11.59c-.21.32-.42.46-.76.17a.87.87,0,0,0-1.39,1,1.28,1.28,0,0,1-.35,1.63,1.25,1.25,0,0,0-.21,1.57,4.25,4.25,0,0,1,.38,1.89,1.12,1.12,0,0,1-1.21,1.26,2.18,2.18,0,0,0-1.58,1,1.67,1.67,0,0,1-1.41.71c-.64,0-1.23.38-1.9.28-.18,0-.31.19-.39.36a4,4,0,0,0-.48,1.35.69.69,0,0,1-.57.66,2.14,2.14,0,0,0-1.29.8c-.07.1-.15.21-.31.21a8.16,8.16,0,0,0-1.69.43,6.72,6.72,0,0,1-1.66-.08c-.62,0-1.28,0-1.65-.67a.32.32,0,0,0-.39-.14,7.49,7.49,0,0,1-2,.43c-.64.06-1.19.5-1.84.57l-.05,0a11.53,11.53,0,0,1-2.73-.71c-.38-.16-.54-.73-.55-1.22C80,418,80,417.67,80,417.23Z" transform="translate(-33.67 -348)"/><path class="cls-3" d="M69.26,432.11a10.77,10.77,0,0,0-5-2.63,8.94,8.94,0,0,0-4.45.13,7.17,7.17,0,0,0,3.69,2.46A12.57,12.57,0,0,0,69.26,432.11Z" transform="translate(-33.67 -348)"/><path class="cls-3" d="M69.23,432.09a6.7,6.7,0,0,1-.71-3.45,5.55,5.55,0,0,1,.84-2.64,4.46,4.46,0,0,1,.84,2.63A7.81,7.81,0,0,1,69.23,432.09Z" transform="translate(-33.67 -348)"/><path class="cls-3" d="M65.92,428.3a10.24,10.24,0,0,0-4.53-2.9,8.49,8.49,0,0,0-4.23-.25,6.81,6.81,0,0,0,3.29,2.64A11.94,11.94,0,0,0,65.92,428.3Z" transform="translate(-33.67 -348)"/><path class="cls-3" d="M65.9,428.27a6.37,6.37,0,0,1-.39-3.32,5.28,5.28,0,0,1,1-2.43,4.23,4.23,0,0,1,.58,2.56A7.42,7.42,0,0,1,65.9,428.27Z" transform="translate(-33.67 -348)"/><path class="cls-3" d="M62.87,424.15A9.72,9.72,0,0,0,58.82,421a8.06,8.06,0,0,0-4-.58,6.47,6.47,0,0,0,2.89,2.77A11.34,11.34,0,0,0,62.87,424.15Z" transform="translate(-33.67 -348)"/><path class="cls-3" d="M62.85,424.13a6,6,0,0,1-.09-3.18,5,5,0,0,1,1.16-2.21,4,4,0,0,1,.34,2.47A7.05,7.05,0,0,1,62.85,424.13Z" transform="translate(-33.67 -348)"/><path class="cls-3" d="M60.36,419.71a9.24,9.24,0,0,0-3.58-3.29,7.66,7.66,0,0,0-3.72-.88,6.14,6.14,0,0,0,2.51,2.86A10.78,10.78,0,0,0,60.36,419.71Z" transform="translate(-33.67 -348)"/><path class="cls-3" d="M60.34,419.69a5.75,5.75,0,0,1,.18-3,4.76,4.76,0,0,1,1.28-2,3.82,3.82,0,0,1,.11,2.36A6.7,6.7,0,0,1,60.34,419.69Z" transform="translate(-33.67 -348)"/><path class="cls-3" d="M58.34,415.29a8.78,8.78,0,0,0-3.11-3.41,7.28,7.28,0,0,0-3.44-1.14,5.84,5.84,0,0,0,2.14,2.92A10.24,10.24,0,0,0,58.34,415.29Z" transform="translate(-33.67 -348)"/><path class="cls-3" d="M58.33,415.27a5.46,5.46,0,0,1,.42-2.84,4.52,4.52,0,0,1,1.38-1.79,3.63,3.63,0,0,1-.09,2.25A6.36,6.36,0,0,1,58.33,415.27Z" transform="translate(-33.67 -348)"/><path class="cls-3" d="M57.37,410.95a8.34,8.34,0,0,0-2.66-3.48,6.92,6.92,0,0,0-3.17-1.37A5.55,5.55,0,0,0,53.33,409,9.73,9.73,0,0,0,57.37,410.95Z" transform="translate(-33.67 -348)"/><path class="cls-3" d="M57.36,410.92a5.19,5.19,0,0,1,.63-2.65,4.3,4.3,0,0,1,1.45-1.58,3.45,3.45,0,0,1-.27,2.12A6,6,0,0,1,57.36,410.92Z" transform="translate(-33.67 -348)"/><path class="cls-3" d="M56.77,406.72a7.92,7.92,0,0,0-2-3.67A6.57,6.57,0,0,0,52,401.31a5.27,5.27,0,0,0,1.24,3A9.24,9.24,0,0,0,56.77,406.72Z" transform="translate(-33.67 -348)"/><path class="cls-3" d="M56.76,406.7a4.93,4.93,0,0,1,1-2.4,4.08,4.08,0,0,1,1.6-1.26,3.28,3.28,0,0,1-.57,1.95A5.75,5.75,0,0,1,56.76,406.7Z" transform="translate(-33.67 -348)"/><path class="cls-3" d="M56.83,402.55a7.52,7.52,0,0,0-1.44-3.69,6.24,6.24,0,0,0-2.41-2,5,5,0,0,0,.82,3A8.78,8.78,0,0,0,56.83,402.55Z" transform="translate(-33.67 -348)"/><path class="cls-3" d="M56.83,402.52A4.68,4.68,0,0,1,58,400.38a3.88,3.88,0,0,1,1.65-1,3.11,3.11,0,0,1-.76,1.77A5.45,5.45,0,0,1,56.83,402.52Z" transform="translate(-33.67 -348)"/><path class="cls-3" d="M57.51,398.59A7.15,7.15,0,0,0,56.45,395a5.93,5.93,0,0,0-2.11-2.07,4.76,4.76,0,0,0,.52,2.9A8.34,8.34,0,0,0,57.51,398.59Z" transform="translate(-33.67 -348)"/><path class="cls-3" d="M57.5,398.57a4.44,4.44,0,0,1,1.32-1.93,3.68,3.68,0,0,1,1.65-.82,3,3,0,0,1-.87,1.61A5.18,5.18,0,0,1,57.5,398.57Z" transform="translate(-33.67 -348)"/><path class="cls-3" d="M58.5,394.86a6.79,6.79,0,0,0-.7-3.5A5.63,5.63,0,0,0,56,389.23a4.52,4.52,0,0,0,.26,2.79A7.93,7.93,0,0,0,58.5,394.86Z" transform="translate(-33.67 -348)"/><path class="cls-3" d="M58.5,394.84a4.22,4.22,0,0,1,1.41-1.72,3.5,3.5,0,0,1,1.63-.64,2.81,2.81,0,0,1-1,1.45A4.92,4.92,0,0,1,58.5,394.84Z" transform="translate(-33.67 -348)"/><path class="cls-3" d="M59.79,391.37a6.45,6.45,0,0,0-.38-3.37,5.35,5.35,0,0,0-1.55-2.17,4.29,4.29,0,0,0,0,2.66A7.52,7.52,0,0,0,59.79,391.37Z" transform="translate(-33.67 -348)"/><path class="cls-3" d="M59.79,391.34a4,4,0,0,1,1.48-1.51,3.33,3.33,0,0,1,1.59-.47,2.67,2.67,0,0,1-1,1.3A4.68,4.68,0,0,1,59.79,391.34Z" transform="translate(-33.67 -348)"/><path class="cls-3" d="M61.32,388.12a6.13,6.13,0,0,0-.08-3.22A5.08,5.08,0,0,0,60,382.71a4.08,4.08,0,0,0-.21,2.52A7.15,7.15,0,0,0,61.32,388.12Z" transform="translate(-33.67 -348)"/><path class="cls-3" d="M61.32,388.1a3.81,3.81,0,0,1,1.52-1.3,3.16,3.16,0,0,1,1.54-.31,2.53,2.53,0,0,1-1.08,1.14A4.45,4.45,0,0,1,61.32,388.1Z" transform="translate(-33.67 -348)"/><path class="cls-3" d="M63.07,385.12a5.82,5.82,0,0,0,.19-3.06,4.83,4.83,0,0,0-1-2.17,3.87,3.87,0,0,0-.41,2.36A6.8,6.8,0,0,0,63.07,385.12Z" transform="translate(-33.67 -348)"/><path class="cls-3" d="M63.08,385.1A3.62,3.62,0,0,1,64.62,384a3,3,0,0,1,1.49-.17,2.41,2.41,0,0,1-1.11,1A4.22,4.22,0,0,1,63.08,385.1Z" transform="translate(-33.67 -348)"/><path class="cls-3" d="M75.65,434.05a10.77,10.77,0,0,0-5.59-.95,8.94,8.94,0,0,0-4.2,1.5,7.17,7.17,0,0,0,4.27,1.2A12.57,12.57,0,0,0,75.65,434.05Z" transform="translate(-33.67 -348)"/><path class="cls-3" d="M75.6,434.06A6.7,6.7,0,0,1,73,431.73a5.56,5.56,0,0,1-.92-2.61,4.46,4.46,0,0,1,2.25,1.59A7.82,7.82,0,0,1,75.6,434.06Z" transform="translate(-33.67 -348)"/><path class="cls-3" d="M81.74,435a10.78,10.78,0,0,0-5.64.53,8.93,8.93,0,0,0-3.67,2.53,7.17,7.17,0,0,0,4.44.06A12.57,12.57,0,0,0,81.74,435Z" transform="translate(-33.67 -348)"/><path class="cls-3" d="M81.69,435a6.7,6.7,0,0,1-3.16-1.57A5.55,5.55,0,0,1,77,431.19a4.46,4.46,0,0,1,2.59,1A7.82,7.82,0,0,1,81.69,435Z" transform="translate(-33.67 -348)"/><path class="cls-3" d="M96.55,439.38c-3.8-.9-5.65-2.53-9.53-2.9-5.62-.53-5.54,2.29-9.37,3,7.44.68,6.38-1.87,10.53-1.87,3.06,0,4.51,2.13,7.57,2.13a3.68,3.68,0,0,0,1.42-.35Z" transform="translate(-33.67 -348)"/><path class="cls-1" d="M64.45,383a4.42,4.42,0,0,1,.24-1.92,3,3,0,0,1,.87-1.22,2.88,2.88,0,0,1-.65,2.69,3.53,3.53,0,0,1,2.59-.78,2.41,2.41,0,0,1-1.13,1A4.23,4.23,0,0,1,64.45,383Z" transform="translate(-33.67 -348)"/><path class="cls-3" d="M66.32,381.2a2.08,2.08,0,0,1,.8-.94,2.28,2.28,0,0,1,1-.28,1.77,1.77,0,0,1-.62.84A2.63,2.63,0,0,1,66.32,381.2Z" transform="translate(-33.67 -348)"/><path class="cls-3" d="M112.49,432.11a10.77,10.77,0,0,1,5-2.63,8.94,8.94,0,0,1,4.45.13,7.17,7.17,0,0,1-3.69,2.46A12.57,12.57,0,0,1,112.49,432.11Z" transform="translate(-33.67 -348)"/><path class="cls-3" d="M112.52,432.09a6.7,6.7,0,0,0,.71-3.45,5.56,5.56,0,0,0-.84-2.64,4.46,4.46,0,0,0-.84,2.63A7.82,7.82,0,0,0,112.52,432.09Z" transform="translate(-33.67 -348)"/><path class="cls-3" d="M115.83,428.3a10.24,10.24,0,0,1,4.53-2.9,8.49,8.49,0,0,1,4.23-.25,6.81,6.81,0,0,1-3.29,2.64A11.94,11.94,0,0,1,115.83,428.3Z" transform="translate(-33.67 -348)"/><path class="cls-3" d="M115.85,428.27a6.37,6.37,0,0,0,.39-3.32,5.28,5.28,0,0,0-1-2.43,4.23,4.23,0,0,0-.58,2.56A7.42,7.42,0,0,0,115.85,428.27Z" transform="translate(-33.67 -348)"/><path class="cls-3" d="M118.88,424.15a9.73,9.73,0,0,1,4.05-3.12,8.06,8.06,0,0,1,4-.58,6.47,6.47,0,0,1-2.89,2.77A11.34,11.34,0,0,1,118.88,424.15Z" transform="translate(-33.67 -348)"/><path class="cls-3" d="M118.9,424.13A6,6,0,0,0,119,421a5,5,0,0,0-1.16-2.21,4,4,0,0,0-.34,2.47A7.05,7.05,0,0,0,118.9,424.13Z" transform="translate(-33.67 -348)"/><path class="cls-3" d="M121.4,419.71a9.24,9.24,0,0,1,3.58-3.29,7.66,7.66,0,0,1,3.72-.88,6.14,6.14,0,0,1-2.51,2.86A10.77,10.77,0,0,1,121.4,419.71Z" transform="translate(-33.67 -348)"/><path class="cls-3" d="M121.41,419.69a5.75,5.75,0,0,0-.18-3,4.76,4.76,0,0,0-1.28-2,3.82,3.82,0,0,0-.11,2.36A6.7,6.7,0,0,0,121.41,419.69Z" transform="translate(-33.67 -348)"/><path class="cls-3" d="M123.41,415.29a8.78,8.78,0,0,1,3.11-3.41,7.28,7.28,0,0,1,3.44-1.14,5.84,5.84,0,0,1-2.14,2.92A10.24,10.24,0,0,1,123.41,415.29Z" transform="translate(-33.67 -348)"/><path class="cls-3" d="M123.43,415.27a5.46,5.46,0,0,0-.42-2.84,4.53,4.53,0,0,0-1.38-1.79,3.63,3.63,0,0,0,.09,2.25A6.37,6.37,0,0,0,123.43,415.27Z" transform="translate(-33.67 -348)"/><path class="cls-3" d="M124.38,410.95a8.34,8.34,0,0,1,2.66-3.48,6.92,6.92,0,0,1,3.17-1.37,5.55,5.55,0,0,1-1.78,2.94A9.73,9.73,0,0,1,124.38,410.95Z" transform="translate(-33.67 -348)"/><path class="cls-3" d="M124.39,410.92a5.18,5.18,0,0,0-.63-2.65,4.3,4.3,0,0,0-1.45-1.58,3.45,3.45,0,0,0,.27,2.12A6,6,0,0,0,124.39,410.92Z" transform="translate(-33.67 -348)"/><path class="cls-3" d="M125,406.72a7.92,7.92,0,0,1,2-3.67,6.57,6.57,0,0,1,2.77-1.75,5.27,5.27,0,0,1-1.24,3A9.24,9.24,0,0,1,125,406.72Z" transform="translate(-33.67 -348)"/><path class="cls-3" d="M125,406.7a4.92,4.92,0,0,0-1-2.4,4.08,4.08,0,0,0-1.6-1.26A3.28,3.28,0,0,0,123,405,5.75,5.75,0,0,0,125,406.7Z" transform="translate(-33.67 -348)"/><path class="cls-3" d="M124.92,402.55a7.52,7.52,0,0,1,1.44-3.69,6.24,6.24,0,0,1,2.41-2,5,5,0,0,1-.82,3A8.78,8.78,0,0,1,124.92,402.55Z" transform="translate(-33.67 -348)"/><path class="cls-3" d="M124.92,402.52a4.68,4.68,0,0,0-1.21-2.14,3.88,3.88,0,0,0-1.65-1,3.11,3.11,0,0,0,.76,1.77A5.46,5.46,0,0,0,124.92,402.52Z" transform="translate(-33.67 -348)"/><path class="cls-3" d="M124.25,398.59a7.15,7.15,0,0,1,1.06-3.61,5.93,5.93,0,0,1,2.11-2.07,4.76,4.76,0,0,1-.52,2.9A8.34,8.34,0,0,1,124.25,398.59Z" transform="translate(-33.67 -348)"/><path class="cls-3" d="M124.25,398.57a4.44,4.44,0,0,0-1.32-1.93,3.68,3.68,0,0,0-1.65-.82,3,3,0,0,0,.87,1.61A5.18,5.18,0,0,0,124.25,398.57Z" transform="translate(-33.67 -348)"/><path class="cls-3" d="M123.25,394.86a6.79,6.79,0,0,1,.7-3.5,5.63,5.63,0,0,1,1.83-2.13,4.52,4.52,0,0,1-.26,2.79A7.93,7.93,0,0,1,123.25,394.86Z" transform="translate(-33.67 -348)"/><path class="cls-3" d="M123.25,394.84a4.22,4.22,0,0,0-1.41-1.72,3.5,3.5,0,0,0-1.63-.64,2.81,2.81,0,0,0,1,1.45A4.92,4.92,0,0,0,123.25,394.84Z" transform="translate(-33.67 -348)"/><path class="cls-3" d="M122,391.37a6.45,6.45,0,0,1,.38-3.37,5.35,5.35,0,0,1,1.55-2.17,4.29,4.29,0,0,1,0,2.66A7.52,7.52,0,0,1,122,391.37Z" transform="translate(-33.67 -348)"/><path class="cls-3" d="M122,391.34a4,4,0,0,0-1.48-1.51,3.33,3.33,0,0,0-1.59-.47,2.67,2.67,0,0,0,1,1.3A4.68,4.68,0,0,0,122,391.34Z" transform="translate(-33.67 -348)"/><path class="cls-3" d="M120.43,388.12a6.13,6.13,0,0,1,.08-3.22,5.08,5.08,0,0,1,1.29-2.18,4.08,4.08,0,0,1,.21,2.52A7.15,7.15,0,0,1,120.43,388.12Z" transform="translate(-33.67 -348)"/><path class="cls-3" d="M120.43,388.1a3.81,3.81,0,0,0-1.52-1.3,3.16,3.16,0,0,0-1.54-.31,2.53,2.53,0,0,0,1.08,1.14A4.44,4.44,0,0,0,120.43,388.1Z" transform="translate(-33.67 -348)"/><path class="cls-3" d="M118.68,385.12a5.82,5.82,0,0,1-.19-3.06,4.83,4.83,0,0,1,1-2.17,3.87,3.87,0,0,1,.41,2.36A6.8,6.8,0,0,1,118.68,385.12Z" transform="translate(-33.67 -348)"/><path class="cls-3" d="M118.68,385.1a3.62,3.62,0,0,0-1.55-1.11,3,3,0,0,0-1.49-.17,2.41,2.41,0,0,0,1.11,1A4.22,4.22,0,0,0,118.68,385.1Z" transform="translate(-33.67 -348)"/><path class="cls-3" d="M106.1,434.05a10.78,10.78,0,0,1,5.59-.95,8.94,8.94,0,0,1,4.2,1.5,7.17,7.17,0,0,1-4.27,1.2A12.57,12.57,0,0,1,106.1,434.05Z" transform="translate(-33.67 -348)"/><path class="cls-3" d="M106.15,434.06a6.7,6.7,0,0,0,2.64-2.33,5.56,5.56,0,0,0,.92-2.61,4.46,4.46,0,0,0-2.25,1.59A7.82,7.82,0,0,0,106.15,434.06Z" transform="translate(-33.67 -348)"/><path class="cls-3" d="M100,435a10.78,10.78,0,0,1,5.64.53,8.93,8.93,0,0,1,3.67,2.53,7.17,7.17,0,0,1-4.44.06A12.57,12.57,0,0,1,100,435Z" transform="translate(-33.67 -348)"/><path class="cls-3" d="M100.06,435a6.7,6.7,0,0,0,3.16-1.57,5.55,5.55,0,0,0,1.56-2.29,4.46,4.46,0,0,0-2.59,1A7.82,7.82,0,0,0,100.06,435Z" transform="translate(-33.67 -348)"/><path class="cls-3" d="M85.2,439.38c3.8-.9,5.65-2.53,9.53-2.9,5.62-.53,5.54,2.29,9.37,3-7.44.68-6.38-1.87-10.53-1.87-3.06,0-4.51,2.13-7.57,2.13a3.68,3.68,0,0,1-1.42-.35Z" transform="translate(-33.67 -348)"/><path class="cls-1" d="M117.3,383a4.42,4.42,0,0,0-.24-1.92,3,3,0,0,0-.87-1.22,2.88,2.88,0,0,0,.65,2.69,3.53,3.53,0,0,0-2.59-.78,2.41,2.41,0,0,0,1.13,1A4.23,4.23,0,0,0,117.3,383Z" transform="translate(-33.67 -348)"/><path class="cls-3" d="M115.44,381.2a2.08,2.08,0,0,0-.8-.94,2.28,2.28,0,0,0-1-.28,1.77,1.77,0,0,0,.62.84A2.63,2.63,0,0,0,115.44,381.2Z" transform="translate(-33.67 -348)"/><path class="cls-2" d="M42.14,415.74l4.59,1.16L46,414.69l.87-.3,1.2,3.5-.62.21-4.58-1.16.85,2.47-.88.3L41.51,416Z" transform="translate(-33.67 -348)"/><path class="cls-2" d="M48.46,419l.45,1-2,.88.85,1.92,2-.88.44,1-5.08,2.24-.44-1,2.2-1L46,421.3l-2.2,1-.45-1Z" transform="translate(-33.67 -348)"/><path class="cls-2" d="M50.91,424.34l1.65,3-.81.45-1.11-2-1.12.62.94,1.71-.81.45-.94-1.71-1.3.72,1.15,2.08-.81.45L46,427Z" transform="translate(-33.67 -348)"/><path class="cls-2" d="M50.28,432.5l.9.29a.94.94,0,0,0,0,1c.29.4.65.45,1.27,0l3-2.15.65.9-3,2.2a1.68,1.68,0,0,1-2.54-.28A1.83,1.83,0,0,1,50.28,432.5Z" transform="translate(-33.67 -348)"/><path class="cls-2" d="M57.07,433.74l.71.85-4.25,3.57-.71-.85Z" transform="translate(-33.67 -348)"/><path class="cls-2" d="M57.7,440.54l-1.27-1.28-1.29.73-.79-.8,5.2-2.64.92.93-2.69,5.17-.82-.83Zm.45-.78.32-.54c.29-.53.64-1.08.95-1.62l0,0c-.53.33-1.1.65-1.62.94l-.55.31Z" transform="translate(-33.67 -348)"/><path class="cls-2" d="M62.3,439.24l.89.7-.57,3.32-.31,1.29,0,0c.31-.49.7-1.12,1.1-1.61l1.38-1.73.82.65-3.45,4.35-.88-.7.59-3.33.3-1.28,0,0c-.33.5-.7,1.1-1.1,1.6l-1.39,1.75-.82-.65Z" transform="translate(-33.67 -348)"/><path class="cls-2" d="M65.16,445a2.65,2.65,0,0,1,3.78-1.13A2.34,2.34,0,0,1,70,445.33l-.87.3a1.46,1.46,0,0,0-.7-1,1.65,1.65,0,0,0-2.33.84c-.62,1-.52,1.95.42,2.5a1.12,1.12,0,0,0,.71.18l.56-.94-.84-.5.47-.78,1.69,1-1.29,2.15a2.61,2.61,0,0,1-1.89-.35A2.58,2.58,0,0,1,65.16,445Z" transform="translate(-33.67 -348)"/><path class="cls-2" d="M73.33,446.27l1.16.42v2.76c0,.37,0,.75-.05,1.12h0c.24-.3.45-.61.69-.89l1.76-2.12,1.16.42-1.91,5.21-1-.35.8-2.18c.18-.49.52-1.19.75-1.67h0l-.87,1.07L74.25,452l-.6-.22v-2.49l0-1.38h0c-.13.51-.31,1.27-.49,1.76l-.8,2.18-.94-.34Z" transform="translate(-33.67 -348)"/><path class="cls-2" d="M79.5,448.36l3.32.76-.21.9-2.24-.52-.29,1.25,1.9.44-.21.91-1.9-.44-.33,1.45,2.32.53-.21.91-3.4-.78Z" transform="translate(-33.67 -348)"/><path class="cls-2" d="M84.14,449.36l1.51.19a2.78,2.78,0,0,1-.62,5.52l-1.57-.19Zm.87,4.8c1,.13,1.74-.34,1.9-1.69s-.41-1.93-1.44-2.06l-.34,0-.46,3.75Z" transform="translate(-33.67 -348)"/><path class="cls-2" d="M89.68,449.93l1.11.05-.26,5.55-1.11-.05Z" transform="translate(-33.67 -348)"/><path class="cls-2" d="M92.16,452.85a2.64,2.64,0,0,1,2.53-2.95,2.26,2.26,0,0,1,1.64.68l-.57.72a1.43,1.43,0,0,0-1-.45c-.84,0-1.46.75-1.44,1.94s.6,1.93,1.48,1.91a1.54,1.54,0,0,0,1.14-.57l.6.68a2.25,2.25,0,0,1-1.76.85A2.56,2.56,0,0,1,92.16,452.85Z" transform="translate(-33.67 -348)"/><path class="cls-2" d="M100.5,453.74l-1.79.18-.24,1.46-1.12.11,1.2-5.71,1.3-.13,2.34,5.34-1.16.12Zm-.33-.83-.23-.59c-.23-.56-.44-1.18-.67-1.76h0c-.08.62-.18,1.26-.29,1.85l-.1.62Z" transform="translate(-33.67 -348)"/><path class="cls-2" d="M102.44,449.31l1.09-.22.9,4.53,2.21-.44.18.91-3.3.65Z" transform="translate(-33.67 -348)"/><path class="cls-2" d="M108.7,447.83l3.2-1.17.32.87-2.16.79.44,1.21,1.83-.67.32.87-1.83.67.51,1.4,2.23-.81.32.87L110.6,453Z" transform="translate(-33.67 -348)"/><path class="cls-2" d="M120.68,449.94a2.32,2.32,0,0,1-.74.58,2.43,2.43,0,0,1-2.71-.19,2.61,2.61,0,0,1-3.09-1.59c-.85-1.6-.45-3,.85-3.69s2.69-.24,3.54,1.35a2.64,2.64,0,0,1-.28,3.35,1.42,1.42,0,0,0,1.39-.07,2,2,0,0,0,.49-.37Zm-3.41-.61c.73-.39.84-1.3.25-2.4s-1.36-1.43-2.09-1-.86,1.27-.29,2.32S116.54,449.71,117.27,449.32Z" transform="translate(-33.67 -348)"/><path class="cls-2" d="M120,445.78l-1.86-2.42.88-.68,1.92,2.5c.7.92,1.26,1,1.77.59s.62-1-.08-1.88l-1.92-2.5.84-.65,1.86,2.42c1.12,1.46,1,2.54-.12,3.37S121.1,447.25,120,445.78Z" transform="translate(-33.67 -348)"/><path class="cls-2" d="M122.55,439.72l.79-.78,3.89,4-.79.78Z" transform="translate(-33.67 -348)"/><path class="cls-2" d="M125.69,436.39l1.08-1.47c.73-1,1.63-1.5,2.69-.72a1.86,1.86,0,0,1,.21,2.82l-.44.6,1.59,1.17-.66.89Zm3.23.17c.45-.62.41-1.1-.1-1.48s-.93-.19-1.39.43l-.37.51,1.47,1.08Z" transform="translate(-33.67 -348)"/><path class="cls-2" d="M128.65,432.27l.58-1.08,2.73.4c.36.06.73.14,1.1.21l0,0c-.26-.28-.54-.54-.78-.81l-1.85-2,.58-1.08,4.89,2.63-.48.89-2-1.1c-.46-.25-1.1-.69-1.54-1v0l.94,1,1.65,1.86-.3.56-2.46-.35-1.36-.23v0c.49.2,1.21.49,1.67.74l2,1.1-.47.88Z" transform="translate(-33.67 -348)"/><path class="cls-2" d="M131.6,426.47l1.24-3.17.86.34-.83,2.14,1.2.47.71-1.82.87.34-.71,1.82,1.38.54.87-2.22.87.34-1.27,3.25Z" transform="translate(-33.67 -348)"/><path class="cls-2" d="M133.28,422l.3-1.09,3.28-.76,1.31-.21v0c-.57-.1-1.3-.21-1.91-.38l-2.13-.59.28-1,5.35,1.49-.3,1.08-3.29.75-1.3.22v0c.59.11,1.29.22,1.9.39l2.15.6-.28,1Z" transform="translate(-33.67 -348)"/><path class="cls-2" d="M135.85,415.48l-.28,1.54-.91-.16.75-4.18.91.16-.28,1.55,4.56.82-.2,1.09Z" transform="translate(-33.67 -348)"/><path class="cls-2" d="M169,393a40.16,40.16,0,0,0-5.47-3.38l2.22-2.85a46.13,46.13,0,0,1,5.6,3.05Zm2.59,4.68c-1.13,3.55-2.55,7.36-3.91,10.61l-3.58-2.06a100.14,100.14,0,0,0,4.31-10.64Zm-1.36-13.3a38.2,38.2,0,0,0-5.4-3.58l2.29-2.88a37.5,37.5,0,0,1,5.54,3.25ZM182,394.94c-1.13.4-2.22.8-3.38,1.19v7.49c0,1.92-.33,3-1.39,3.65s-2.62.83-4.84.83a15.35,15.35,0,0,0-1.09-3.95c1.36.07,2.65.07,3.12,0s.56-.1.56-.56V397.4c-1,.33-1.89.63-2.78.9l-1.46-3.88c1.19-.3,2.65-.7,4.24-1.13v-5.94h-3.38v-3.68H175v-5.93h3.65v5.93h3v3.68h-3v4.84l2.78-.83Zm12.63-3.18h-2.42v16.81h-3.61V391.76h-2.22v.1c0,5-.56,12.07-3.88,16.41a12.23,12.23,0,0,0-2.92-2.29c2.92-3.95,3.18-9.68,3.18-14.12V380.65a37.65,37.65,0,0,0,8.42-3.05l2.85,3.05a50.56,50.56,0,0,1-7.66,2.52v4.94h8.26Z" transform="translate(-33.67 -348)"/><path class="cls-2" d="M206.44,393.58a55.42,55.42,0,0,0-6.17-3.58l2.12-2.92a63.83,63.83,0,0,1,6.23,3.22Zm4.14,4.18c-1.72,3.41-3.85,7.19-5.84,10.44l-3.31-2.69a93.39,93.39,0,0,0,6.23-10.44Zm-2.49-13a67.23,67.23,0,0,0-5.87-3.88l2.29-2.79a60.41,60.41,0,0,1,6,3.55Zm23,17.87v3.95H209.43v-3.95h8.52v-18.3h-6.73v-3.95h18.37v3.95h-7.33v18.3Z" transform="translate(-33.67 -348)"/><path class="cls-2" d="M263.83,388.61a18.19,18.19,0,0,0-2.45-3.25,25.7,25.7,0,0,1-9.18,6.07h11.17v17h-4v-1.09h-13.1v1.26h-3.81V394.38c-1.26.26-2.49.5-3.75.7a22.84,22.84,0,0,0-2.42-3.42,59.33,59.33,0,0,0,13.66-3.12V377.64h3.91v9a15.43,15.43,0,0,0,3.91-3.12l3.38,1.52a54.81,54.81,0,0,0-4.14-4.14l3.12-1.89a39.35,39.35,0,0,1,7.16,7.43Zm-16.38-8.22a28.39,28.39,0,0,1-6.13,8.65,22.34,22.34,0,0,0-3.38-2.29,19.5,19.5,0,0,0,5.6-7.39Zm11.9,14h-13.1v1.46h13.1Zm-13.1,5.77h13.1v-1.62h-13.1Zm13.1,4.28V402.8h-13.1v1.62Z" transform="translate(-33.67 -348)"/><path class="cls-2" d="M303.75,403.76v3.78h-29V379.09h28.32v3.75H278.69v20.92h19.63a49.45,49.45,0,0,0-7-5.3c-1.49,2.06-4.24,3.91-8.88,5.3a16.58,16.58,0,0,0-2.42-3c5.31-1.29,7.59-3.15,8.59-5.11H280v-3.42h9.18v-3.15h-4.14a13.69,13.69,0,0,1-2,2.12,26.91,26.91,0,0,0-3.28-2,14.4,14.4,0,0,0,4.58-6.27l3.68.93c-.26.6-.53,1.23-.83,1.86H300.8v3.32h-7.69v3.15h9.05v3.42h-9.08a68,68,0,0,1,7.79,5.44l-2.35,2.62Z" transform="translate(-33.67 -348)"/><path class="cls-2" d="M339.86,399.92H327v4.24c0,2.06-.5,3.05-2.06,3.61s-3.65.63-6.46.63a16.71,16.71,0,0,0-1.63-3.81c2.12.1,4.58.1,5.24.07s.86-.17.86-.6v-4.15H310.31v-3.65h12.63v-2.06a25,25,0,0,0,3.75-1.92H316.25v-3.41h15l.79-.2,2.52,2a32,32,0,0,1-7.53,5v.63h12.86Zm-25.4-9.81h-3.71v-7.26h5.07a26,26,0,0,0-2.32-3.45l3.35-1.49a20,20,0,0,1,3.05,4.34l-1.26.6h5.57a22.27,22.27,0,0,0-2.16-4.24l3.48-1.29a18.55,18.55,0,0,1,2.62,4.77l-2,.76h4.31a35.24,35.24,0,0,0,2.85-5l4.11,1.23c-.9,1.29-1.89,2.59-2.82,3.78h4.84v7.26h-3.88v-3.78H314.46Z" transform="translate(-33.67 -348)"/><path class="cls-2" d="M375.23,399.85a40.49,40.49,0,0,1-5.17,3,22.13,22.13,0,0,0,7.06,2.29,13.54,13.54,0,0,0-2.22,3.22c-6.86-1.46-11-4.77-13.59-10.25a20.91,20.91,0,0,1-4.41,3.08v3.08l7.16-1.36a18,18,0,0,0-.3,3.15c-9.32,1.92-10.71,2.25-11.5,2.72a11.39,11.39,0,0,0-1.13-3,2.51,2.51,0,0,0,2-2.35v-.53a38.52,38.52,0,0,1-5.07,1.46,15.53,15.53,0,0,0-2.16-2.82A31.67,31.67,0,0,0,356.37,398h-9.88v-3.12h12.93c-.2-.53-.4-1-.6-1.46l3.85-1.09a20.1,20.1,0,0,1,1.23,2.55h12.67V398h-3.78Zm-22-10.31c-2.06.9-4.18,1.82-6,2.59L346,388.94c1.92-.7,4.54-1.76,7.23-2.88V377.6h3.65v15.92h-3.65Zm-2.52-4.61a23.59,23.59,0,0,0-4.08-3.58l2.25-2.22a25,25,0,0,1,4.21,3.35Zm14.42-.07H358v-3.42h7.06V377.6h4v3.85h7.19v3.42h-7.19v3.88h6.5v3.38H358.89v-3.38h6.2ZM365,398a13.06,13.06,0,0,0,2.42,3,38.45,38.45,0,0,0,4.64-3Z" transform="translate(-33.67 -348)"/><path class="cls-2" d="M409.05,381.61a21.83,21.83,0,0,1-6.73,6.76,64.49,64.49,0,0,0,11.7,2.06,16.77,16.77,0,0,0-2.42,3.68,54.75,54.75,0,0,1-13.73-3.38,49.85,49.85,0,0,1-10.74,3.22h22.08v14.62h-4.34v-.93H390.48v1h-4.11V394.08c-.9.17-1.72.3-2.62.43a13.34,13.34,0,0,0-1.72-3.68,60.11,60.11,0,0,0,11.37-2.29,31.63,31.63,0,0,1-3.58-2.55,31.68,31.68,0,0,1-3.78,2.22,11.67,11.67,0,0,0-2.62-2.92,21.48,21.48,0,0,0,9.91-7.82l4.28.86c-.46.63-.93,1.29-1.46,1.92h9.65l.66-.17ZM390.48,397.3v1.79h5.34V397.3Zm5.34,7v-2.16h-5.34v2.16Zm-3.08-20.49a19.31,19.31,0,0,0,5.07,3,21.52,21.52,0,0,0,4.77-3.12h-9.71Zm12.13,13.5h-5v1.79h5Zm0,7v-2.16h-5v2.16Z" transform="translate(-33.67 -348)"/><path class="cls-2" d="M425,382.71a20.74,20.74,0,0,1-2.69,3.81,32.82,32.82,0,0,0-3.41-1.76,18.24,18.24,0,0,0,4.34-7.39l3.88.73c-.23.6-.46,1.23-.76,1.86h7.92v2.75H430.2a14.25,14.25,0,0,1,1.36,2.32l-3.35,1.23a19.84,19.84,0,0,0-1.89-3.55Zm10.38,1.56a14.22,14.22,0,0,1,1.33,2.55h12v5.77h-4v-2.82H424.2v2.82h-3.81v-5.77h12.33a10.56,10.56,0,0,0-.86-1.86Zm-7,15.78h17.94v8.55h-3.95v-.9h-14v.9h-4V391.13h20.19v7.39H428.38Zm0-6.07v1.72h12.33V394Zm0,9v1.86h14v-1.86Zm21-22.94v2.72h-4.58a21.45,21.45,0,0,1,1.49,2.16L443,386.36a15.85,15.85,0,0,0-2.39-3.65h-1.36a13.29,13.29,0,0,1-1.86,2.59,27.31,27.31,0,0,0-3.25-1.69,14.47,14.47,0,0,0,3.32-6.23l3.81.7c-.2.63-.43,1.29-.7,1.92Z" transform="translate(-33.67 -348)"/><path class="cls-2" d="M466.9,401.94c-3.65,1.29-7.63,2.55-10.81,3.58l-.9-4c1.16-.3,2.52-.66,4-1.09v-7.79H455.9V389h3.35v-5.84H455.6v-3.68h10.94v3.68H463V389h3v3.61h-3v6.63c1.09-.33,2.19-.66,3.25-1Zm19.7,2v3.58H465.28V404h9.15v-3.15h-6.86v-3.55h6.86v-2.85H467.8V379h17.31v15.42h-6.67v2.85h7v3.55h-7V404ZM471.35,385.1h3.41v-2.75h-3.41Zm0,6h3.41v-2.85h-3.41Zm10-8.72h-3.28v2.75h3.28Zm0,5.87h-3.28v2.85h3.28Z" transform="translate(-33.67 -348)"/><path class="cls-2" d="M173.46,431.57h-1.34v-6.62l-2.69,6.62h-1.24l-2.69-6.62v6.62h-1.33v-9.23h1.66l3,7.44,3-7.44h1.66Z" transform="translate(-33.67 -348)"/><path class="cls-2" d="M180.42,431.57h-5.77v-9.23h5.77v1.28H176v2.61h3.93v1.28H176v2.79h4.44Z" transform="translate(-33.67 -348)"/><path class="cls-2" d="M189.11,427a4.3,4.3,0,0,1-1.36,3.41,5.14,5.14,0,0,1-3.5,1.13h-2.64v-9.23h2.64Q189.11,422.34,189.11,427Zm-1.37,0a3.55,3.55,0,0,0-.81-2.64,3.8,3.8,0,0,0-2.67-.77H183v6.68h1.3a3.7,3.7,0,0,0,2.55-.82A3.1,3.1,0,0,0,187.74,427Z" transform="translate(-33.67 -348)"/><path class="cls-2" d="M192.86,431.57h-1.33v-9.23h1.33Z" transform="translate(-33.67 -348)"/><path class="cls-2" d="M202.51,424.68l-1.28.48a2.12,2.12,0,0,0-2-1.57,2.16,2.16,0,0,0-1.91,1.18,4.5,4.5,0,0,0-.61,2.35,4.24,4.24,0,0,0,.54,2.2,2,2,0,0,0,1.79,1.06,1.91,1.91,0,0,0,1.34-.48,3.52,3.52,0,0,0,.81-1.34l1.25.51q-1.06,2.63-3.41,2.63a3.25,3.25,0,0,1-2.79-1.45,5.29,5.29,0,0,1-.91-3.12,5.51,5.51,0,0,1,1-3.27,3.4,3.4,0,0,1,2.91-1.58A3.35,3.35,0,0,1,202.51,424.68Z" transform="translate(-33.67 -348)"/><path class="cls-2" d="M212.59,431.57h-1.43l-1-2.53h-4l-1,2.53H203.7l3.78-9.23h1.31Zm-3-3.8-1.45-3.53-1.43,3.53Z" transform="translate(-33.67 -348)"/><path class="cls-2" d="M219.86,431.57h-6.08v-9.23h1.33v8h4.75Z" transform="translate(-33.67 -348)"/><path class="cls-2" d="M231.8,431.57H226v-9.23h5.77v1.28h-4.44v2.61h3.93v1.28h-3.93v2.79h4.44Z" transform="translate(-33.67 -348)"/><path class="cls-2" d="M241.46,431.23l-1,1q-.69-.75-1.22-1.28a3.7,3.7,0,0,1-2.33.8,3.48,3.48,0,0,1-3-1.46,6,6,0,0,1,0-6.53,3.5,3.5,0,0,1,3-1.45,3.54,3.54,0,0,1,3,1.45,5.35,5.35,0,0,1,1,3.26,5.75,5.75,0,0,1-.73,2.93Q240.6,430.32,241.46,431.23Zm-2-4.27a4.3,4.3,0,0,0-.58-2.34,2.4,2.4,0,0,0-4,0,4.3,4.3,0,0,0-.58,2.34,4.24,4.24,0,0,0,.6,2.35,2.18,2.18,0,0,0,2,1.07,2.36,2.36,0,0,0,1.34-.42l-.87-.78.9-1q.39.32.82.72A4.67,4.67,0,0,0,239.5,427Z" transform="translate(-33.67 -348)"/><path class="cls-2" d="M249.92,427.74a4.37,4.37,0,0,1-.84,2.93,3.51,3.51,0,0,1-2.81,1,3.46,3.46,0,0,1-2.79-1,4.39,4.39,0,0,1-.82-2.93v-5.37H244v5.37a3.37,3.37,0,0,0,.43,2,2.19,2.19,0,0,0,1.84.65,2.26,2.26,0,0,0,1.85-.63,3.45,3.45,0,0,0,.43-2v-5.37h1.36Z" transform="translate(-33.67 -348)"/><path class="cls-2" d="M253.66,431.57h-1.33v-9.23h1.33Z" transform="translate(-33.67 -348)"/><path class="cls-2" d="M262.55,425a2.34,2.34,0,0,1-1,2,3.66,3.66,0,0,1-2.18.62h-2v4h-1.34v-9.23h3.3a3.72,3.72,0,0,1,2.2.6A2.34,2.34,0,0,1,262.55,425Zm-1.37,0q0-1.36-1.84-1.36h-1.91v2.73h1.91Q261.18,426.35,261.18,425Z" transform="translate(-33.67 -348)"/><path class="cls-2" d="M273,431.57h-1.34v-6.62L269,431.57h-1.24l-2.69-6.62v6.62h-1.33v-9.23h1.66l3,7.44,3-7.44H273Z" transform="translate(-33.67 -348)"/><path class="cls-2" d="M280,431.57h-5.77v-9.23H280v1.28h-4.44v2.61h3.93v1.28h-3.93v2.79H280Z" transform="translate(-33.67 -348)"/><path class="cls-2" d="M288.52,431.57h-1.45l-4.54-7v7h-1.34v-9.23h1.45l4.54,7v-7h1.34Z" transform="translate(-33.67 -348)"/><path class="cls-2" d="M296.95,423.62H294v8h-1.34v-8h-2.94v-1.28h7.23Z" transform="translate(-33.67 -348)"/><path class="cls-2" d="M312.41,431.57h-1.34v-6.62l-2.69,6.62h-1.24l-2.69-6.62v6.62h-1.33v-9.23h1.66l3,7.44,3-7.44h1.66Z" transform="translate(-33.67 -348)"/><path class="cls-2" d="M322.49,431.57h-1.43L320,429h-4l-1,2.53H313.6l3.78-9.23h1.31Zm-3-3.8L318,424.24l-1.43,3.53Z" transform="translate(-33.67 -348)"/><path class="cls-2" d="M331,431.57h-1.45l-4.54-7v7h-1.34v-9.23h1.45l4.54,7v-7H331Z" transform="translate(-33.67 -348)"/><path class="cls-2" d="M341.1,431.57h-1.43l-1-2.53h-4l-1,2.53h-1.43l3.78-9.23h1.31Zm-3-3.8-1.45-3.53-1.43,3.53Z" transform="translate(-33.67 -348)"/><path class="cls-2" d="M350.17,424.48l-1.27.53a2.65,2.65,0,0,0-2.42-1.43,2.45,2.45,0,0,0-2.15,1.12,4.3,4.3,0,0,0-.66,2.47,3.58,3.58,0,0,0,.69,2.2,2.33,2.33,0,0,0,2,1,2.06,2.06,0,0,0,1.7-.78,3.07,3.07,0,0,0,.58-1.86h-2.3v-1.27h3.64v5.11H348.6v-.84a3.14,3.14,0,0,1-2.29,1,3.65,3.65,0,0,1-3-1.37,4.82,4.82,0,0,1-1.06-3.15,5.47,5.47,0,0,1,1-3.42,3.75,3.75,0,0,1,3.15-1.48A4.07,4.07,0,0,1,350.17,424.48Z" transform="translate(-33.67 -348)"/><path class="cls-2" d="M357.13,431.57h-5.77v-9.23h5.77v1.28h-4.44v2.61h3.93v1.28h-3.93v2.79h4.44Z" transform="translate(-33.67 -348)"/><path class="cls-2" d="M367.61,431.57h-1.34v-6.62l-2.69,6.62h-1.24l-2.69-6.62v6.62h-1.33v-9.23H360l3,7.44,3-7.44h1.66Z" transform="translate(-33.67 -348)"/><path class="cls-2" d="M374.57,431.57h-5.77v-9.23h5.77v1.28h-4.44v2.61h3.93v1.28h-3.93v2.79h4.44Z" transform="translate(-33.67 -348)"/><path class="cls-2" d="M383.1,431.57h-1.45l-4.54-7v7h-1.34v-9.23h1.45l4.54,7v-7h1.34Z" transform="translate(-33.67 -348)"/><path class="cls-2" d="M391.52,423.62h-2.94v8h-1.34v-8h-2.94v-1.28h7.23Z" transform="translate(-33.67 -348)"/><path class="cls-2" d="M404.16,425a2.34,2.34,0,0,1-1,2,3.66,3.66,0,0,1-2.18.62h-2v4h-1.34v-9.23H401a3.72,3.72,0,0,1,2.2.6A2.34,2.34,0,0,1,404.16,425Zm-1.37,0q0-1.36-1.84-1.36H399v2.73h1.91Q402.78,426.35,402.78,425Z" transform="translate(-33.67 -348)"/><path class="cls-2" d="M411.43,431.57h-6.08v-9.23h1.33v8h4.75Z" transform="translate(-33.67 -348)"/><path class="cls-2" d="M421.51,431.57h-1.43L419,429h-4l-1,2.53h-1.43l3.78-9.23h1.31Zm-3-3.8-1.45-3.53-1.43,3.53Z" transform="translate(-33.67 -348)"/><path class="cls-2" d="M429.94,423.62H427v8h-1.34v-8h-2.94v-1.28h7.23Z" transform="translate(-33.67 -348)"/><path class="cls-2" d="M436.85,423.62h-4.39v2.61h3.85v1.28h-3.85v4.06h-1.33v-9.23h5.72Z" transform="translate(-33.67 -348)"/><path class="cls-2" d="M445.93,427a5.29,5.29,0,0,1-1,3.26,3.75,3.75,0,0,1-5.94,0,6,6,0,0,1,0-6.52,3.77,3.77,0,0,1,5.94,0A5.29,5.29,0,0,1,445.93,427Zm-1.39,0a4.27,4.27,0,0,0-.58-2.32,2.35,2.35,0,0,0-3.94,0,4.77,4.77,0,0,0,0,4.65,2.3,2.3,0,0,0,3.91,0A4.26,4.26,0,0,0,444.55,427Z" transform="translate(-33.67 -348)"/><path class="cls-2" d="M453.91,431.57H452.4l-2.11-4h-1.82v4h-1.34v-9.23h3.29a3.76,3.76,0,0,1,2.2.6,2.33,2.33,0,0,1,1,2,2.43,2.43,0,0,1-1.88,2.44ZM452.22,425q0-1.36-1.84-1.36h-1.91v2.73h1.91Q452.22,426.35,452.22,425Z" transform="translate(-33.67 -348)"/><path class="cls-2" d="M464.4,431.57h-1.34v-6.62l-2.69,6.62h-1.24l-2.69-6.62v6.62h-1.33v-9.23h1.66l3,7.44,3-7.44h1.66Z" transform="translate(-33.67 -348)"/><path class="cls-2" d="M478.45,427a5.29,5.29,0,0,1-1,3.26,3.75,3.75,0,0,1-5.94,0,6,6,0,0,1,0-6.52,3.77,3.77,0,0,1,5.94,0A5.29,5.29,0,0,1,478.45,427Zm-1.39,0a4.27,4.27,0,0,0-.58-2.32,2.35,2.35,0,0,0-3.94,0,4.77,4.77,0,0,0,0,4.65,2.3,2.3,0,0,0,3.91,0A4.26,4.26,0,0,0,477.06,427Z" transform="translate(-33.67 -348)"/><path class="cls-2" d="M485.37,423.62H481v2.61h3.85v1.28H481v4.06h-1.33v-9.23h5.72Z" transform="translate(-33.67 -348)"/><path class="cls-2" d="M497.93,431.57h-6.39v-1.21l4.78-6.74h-4.63v-1.28h6.24v1.19l-4.76,6.77h4.76Z" transform="translate(-33.67 -348)"/><path class="cls-2" d="M506.17,431.57h-1.33v-4h-4.39v4h-1.33v-9.23h1.33v4h4.39v-4h1.33Z" transform="translate(-33.67 -348)"/><path class="cls-2" d="M513.13,431.57h-5.77v-9.23h5.77v1.28H508.7v2.61h3.93v1.28H508.7v2.79h4.44Z" transform="translate(-33.67 -348)"/><path class="cls-2" d="M520.42,428.31a3.62,3.62,0,0,1-.78,2.41,2.82,2.82,0,0,1-2.27,1,2.9,2.9,0,0,1-3-2.58l1.27-.27a1.73,1.73,0,0,0,1.78,1.54q1.72,0,1.72-2.08v-5.93h1.33Z" transform="translate(-33.67 -348)"/><path class="cls-2" d="M524.17,431.57h-1.33v-9.23h1.33Z" transform="translate(-33.67 -348)"/><path class="cls-2" d="M535.47,431.57H534L533,429h-4l-1,2.53h-1.43l3.78-9.23h1.31Zm-3-3.8L531,424.24l-1.43,3.53Z" transform="translate(-33.67 -348)"/><path class="cls-2" d="M544,431.57h-1.45l-4.54-7v7h-1.34v-9.23h1.45l4.54,7v-7H544Z" transform="translate(-33.67 -348)"/><path class="cls-2" d="M553.07,424.48l-1.27.53a2.65,2.65,0,0,0-2.42-1.43,2.45,2.45,0,0,0-2.15,1.12,4.3,4.3,0,0,0-.66,2.47,3.58,3.58,0,0,0,.69,2.2,2.33,2.33,0,0,0,2,1,2.06,2.06,0,0,0,1.7-.78,3.07,3.07,0,0,0,.58-1.86h-2.3v-1.27h3.64v5.11H551.5v-.84a3.14,3.14,0,0,1-2.29,1,3.65,3.65,0,0,1-3-1.37,4.82,4.82,0,0,1-1.06-3.15,5.47,5.47,0,0,1,1-3.42,3.75,3.75,0,0,1,3.15-1.48A4.07,4.07,0,0,1,553.07,424.48Z" transform="translate(-33.67 -348)"/><path class="cls-1" d="M80.66,374.22s.06.23.15.63.18.72.33,1.27l-.44.18-2.86,1.19-.44.19-.43.2c-.07,0-.12,0-.13,0a.17.17,0,0,1,0-.1q.06-.32.16-1.41l.4-4q.1-.88.1-1.23l-.75.29a1.86,1.86,0,0,0-1,.8,2.42,2.42,0,0,0-.23,1.21c0,.11,0,.18-.05.2s-.08,0-.1,0a.29.29,0,0,1,0-.12L75,371.87q.47-.13,2.08-.8.58-.24,1.12-.51l.34-.16.23-.09a3.86,3.86,0,0,1,0,.87q-.1.84-.28,2.54l-.35,3.42,1.08-.46a3.54,3.54,0,0,0,1-.62,1.94,1.94,0,0,0,.27-1.72c0-.09,0-.15,0-.17S80.63,374.16,80.66,374.22Z" transform="translate(-33.67 -348)"/><path class="cls-1" d="M86.71,368.63s0,.08-.09.09h0l-.22,0c-.2,0-.3.09-.33.17a2.35,2.35,0,0,0,.06.52l.65,4a6.51,6.51,0,0,1,.13,1.31,1.78,1.78,0,0,1-.63,1,1.87,1.87,0,0,1-1,.52,1,1,0,0,1-.71-.1.7.7,0,0,1-.35-.52.6.6,0,0,1,.51-.71.54.54,0,0,1,.41.09.52.52,0,0,1,.22.36.82.82,0,0,1-.11.51.22.22,0,0,0,0,.13c0,.07.07.09.17.07q.39-.06.32-.79,0-.15-.31-2l-.59-3.62,0-.28,0-.14a.23.23,0,0,0-.16-.18,1.33,1.33,0,0,0-.44,0l-.24,0s0,0,0-.06,0-.09.12-.1l1.11-.18.36-.06.84-.14.26,0C86.65,368.56,86.7,368.58,86.71,368.63Z" transform="translate(-33.67 -348)"/><path class="cls-1" d="M97.62,375.07q0,.09-.19.07h-.06l-.69-.07-.74-.08-.41,0-.82-.09-.22,0c-.08,0-.12,0-.12-.09s.05-.07.13-.06l.3,0c.27,0,.45,0,.52-.09a2.44,2.44,0,0,0,.08-.54l.51-4.86q-.37.71-1,2.28l-1.07,2.66c-.13.32-.23.48-.29.48s-.12-.1-.15-.27L93,372.59q-.14-.64-.75-3.58l-.49,4.64c0,.27,0,.43,0,.48a.19.19,0,0,0,.07.14.67.67,0,0,0,.44.16c.22,0,.32.06.31.13s-.05.06-.14,0l-.79-.12-.48,0-.48,0c-.13,0-.19,0-.18-.1s.06-.07.16-.06l.43,0c.19,0,.3-.06.34-.17a2.33,2.33,0,0,0,.07-.45l.45-4.28a2.22,2.22,0,0,0,0-.85c0-.09-.26-.15-.63-.19-.09,0-.14,0-.13-.1s.06-.08.16-.06l.24,0,1.69.18.1,0q.5,2.55.86,4.25l1.65-4,.19,0,1.18.13.15,0,.24,0,.41,0c.12,0,.18,0,.17.09s0,.08-.12.07l-.21,0a.91.91,0,0,0-.51,0,.4.4,0,0,0-.17.33l0,.31L96.94,372l-.26,2.5q0,.32.13.39a1.75,1.75,0,0,0,.5.09C97.52,375,97.63,375,97.62,375.07Z" transform="translate(-33.67 -348)"/><path class="cls-1" d="M105.56,376.45l-.33.77-.25.57-.07.16q-2.15-1-3.81-1.66l-.7-.29c-.1,0-.14-.08-.12-.12s0,0,.06,0l.26.08q.4.14.52,0a1.64,1.64,0,0,0,.12-.23l1.75-4.2c.14-.33.21-.52.22-.55a.24.24,0,0,0,0-.22.68.68,0,0,0-.29-.18c-.17-.07-.25-.13-.23-.18s.11-.05.26,0l.64.26q1.54.6,2.51,1l.56.24.46.16-.3.94c-.09.3-.15.48-.18.55a.08.08,0,0,1-.12,0c-.06,0-.06-.11,0-.26a1.22,1.22,0,0,0-.12-1,2.22,2.22,0,0,0-1-.74l-.81-.31-1,2.45a3.09,3.09,0,0,0,1.21.35c.2,0,.4-.22.62-.58q.17-.29.25-.25s.05.08,0,.18-.13.3-.28.6c0,.1-.11.24-.19.42q-.3.71-.43,1.09a.79.79,0,0,1,0,.13c0,.07-.07.09-.12.07s-.06,0-.06-.07a2.11,2.11,0,0,1,.06-.29,1.57,1.57,0,0,0,.08-.83c-.06-.14-.26-.28-.61-.43l-.57-.24-1.16,2.79.53.22c.61.24,1,.38,1.13.42a1.27,1.27,0,0,0,.56,0,1,1,0,0,0,.44-.24,4.23,4.23,0,0,0,.46-.63c.05-.08.1-.11.14-.09S105.6,376.37,105.56,376.45Z" transform="translate(-33.67 -348)"/><path class="cls-4" d="M511.7,381.24q1.86,0,4.58-.12v2.28q-2.6-.12-4.58-.12h-5.2v11.41h7.55q2.72,0,5.07-.12v2.28q-2.35-.12-5.07-.12h-7.55v5.52q0,2.64.12,5h-2.85q.12-2.4.12-5v-5.52h-9q-1.73,0-3.71.12v-2.28q2,.12,4,.12h8.79V383.28h-5.82q-1.86,0-4.46.12v-2.28q2.6.12,4.33.12Zm-17.2,5.28q1-.72,2-1.56a70.29,70.29,0,0,1,5,6.36q-1.49,1.08-2.35,1.8A30.8,30.8,0,0,0,494.5,386.52Zm19.06-1.92A19.52,19.52,0,0,0,516,386q-3.1,4.68-5.2,7.32a12.35,12.35,0,0,0-2.1-1.44A36.67,36.67,0,0,0,513.56,384.6Z" transform="translate(-33.67 -348)"/><path class="cls-4" d="M534.23,383.76q-1.86,2.16-5.32,5.64,3.34-.12,6.81-.3t8.54-.54a25.25,25.25,0,0,0-4.08-4.08,8.07,8.07,0,0,0,2-1.8q4.7,4.68,8.29,8.64a8.6,8.6,0,0,0-2.35,1.8,12.12,12.12,0,0,0-2.1-2.52q-6.19.36-12.19.78a35.78,35.78,0,0,0-8.35,1.26,7.27,7.27,0,0,0-1.24-3.12q1.73-.48,4.64-3.36a31.68,31.68,0,0,0,5.26-7.08,12.8,12.8,0,0,0,3,1.8A19.86,19.86,0,0,0,534.23,383.76Zm12.87,17.17q0,4,.12,6.12H544.5v-1.68H529.28v1.8h-2.72q.12-1.8.12-5.52t-.12-7h20.67Q547.1,396.85,547.1,400.93Zm-2.6,2.16V397H529.28v6.12Z" transform="translate(-33.67 -348)"/><text x="-33.67" y="-348"></text></svg>